<?xml version="1.0" encoding="utf-8"?>
<!-- Generator: Adobe Illustrator 23.0.5, SVG Export Plug-In . SVG Version: 6.00 Build 0)  -->
<svg version="1.1" id="гампургер_сортировка"
	 xmlns="http://www.w3.org/2000/svg" xmlns:xlink="http://www.w3.org/1999/xlink" x="0px" y="0px" viewBox="0 0 30 26"
	 enable-background="new 0 0 30 26" xml:space="preserve">
<g>
	<path fill="#979CAA" d="M21.7,8.1c-2.4,0-4.4,1.7-4.9,4H0v2h16.8c0.5,2.3,2.5,4,4.9,4s4.4-1.7,4.9-4H30v-2h-3.3
		C26.2,9.8,24.2,8.1,21.7,8.1z M21.7,16c-1.7,0-3-1.3-3-3c0-1.6,1.3-3,3-3s3,1.3,3,3C24.7,14.7,23.4,16,21.7,16z"/>
	<path fill="#979CAA" d="M9.3,15.9c-2.4,0-4.5,1.7-4.9,4H0v2h4.4c0.5,2.2,2.5,3.9,4.9,3.9c2.4,0,4.4-1.7,4.9-4H30v-2H14.2
		C13.8,17.6,11.7,15.9,9.3,15.9z M9.3,23.8c-1.7,0-3-1.3-3-3c0-1.6,1.3-3,3-3s3,1.3,3,3C12.3,22.5,11,23.8,9.3,23.8z"/>
	<path fill="#979CAA" d="M14.9,4.2c-0.5-2.3-2.5-4-4.9-4C7.6,0.2,5.7,1.8,5.1,4H0v2h5.1c0.4,2.3,2.4,4.1,4.9,4.1
		c2.4,0,4.4-1.7,4.9-4H30v-2H14.9z M10,8.1c-1.7,0-3-1.3-3-3c0-1.6,1.3-3,3-3s3,1.3,3,3C13,6.8,11.6,8.1,10,8.1z"/>
</g>
</svg>
