<svg xmlns="http://www.w3.org/2000/svg" width="18" height="17" viewBox="0 0 18 17">
  <metadata><?xpacket begin="﻿" id="W5M0MpCehiHzreSzNTczkc9d"?>
<x:xmpmeta xmlns:x="adobe:ns:meta/" x:xmptk="Adobe XMP Core 5.6-c142 79.160924, 2017/07/13-01:06:39        ">
   <rdf:RDF xmlns:rdf="http://www.w3.org/1999/02/22-rdf-syntax-ns#">
      <rdf:Description rdf:about=""/>
   </rdf:RDF>
</x:xmpmeta>
                                                                                                    
                                                                                                    
                                                                                                    
                                                                                                    
                                                                                                    
                                                                                                    
                                                                                                    
                                                                                                    
                                                                                                    
                                                                                                    
                                                                                                    
                                                                                                    
                                                                                                    
                                                                                                    
                                                                                                    
                                                                                                    
                                                                                                    
                                                                                                    
                                                                                                    
                                                                                                    
                           
<?xpacket end="w"?></metadata>
<defs>
    <style>
      .cls-1 {
        fill: #6fbeff;
        fill-rule: evenodd;
      }
    </style>
  </defs>
  <path id="Прямоугольник_30_копия_6" data-name="Прямоугольник 30 копия 6" class="cls-1" d="M1508,568h2a1,1,0,0,1,1,1v1a1,1,0,0,1-1,1h-2a1,1,0,0,1-1-1v-1A1,1,0,0,1,1508,568Zm0,7h2a1,1,0,0,1,1,1v1a1,1,0,0,1-1,1h-2a1,1,0,0,1-1-1v-1A1,1,0,0,1,1508,575Zm0,7h2a1,1,0,0,1,1,1v1a1,1,0,0,1-1,1h-2a1,1,0,0,1-1-1v-1A1,1,0,0,1,1508,582Zm7-14h2a1,1,0,0,1,1,1v1a1,1,0,0,1-1,1h-2a1,1,0,0,1-1-1v-1A1,1,0,0,1,1515,568Zm0,7h2a1,1,0,0,1,1,1v1a1,1,0,0,1-1,1h-2a1,1,0,0,1-1-1v-1A1,1,0,0,1,1515,575Zm0,7h2a1,1,0,0,1,1,1v1a1,1,0,0,1-1,1h-2a1,1,0,0,1-1-1v-1A1,1,0,0,1,1515,582Zm7-14h2a1,1,0,0,1,1,1v1a1,1,0,0,1-1,1h-2a1,1,0,0,1-1-1v-1A1,1,0,0,1,1522,568Zm0,7h2a1,1,0,0,1,1,1v1a1,1,0,0,1-1,1h-2a1,1,0,0,1-1-1v-1A1,1,0,0,1,1522,575Zm0,7h2a1,1,0,0,1,1,1v1a1,1,0,0,1-1,1h-2a1,1,0,0,1-1-1v-1A1,1,0,0,1,1522,582Z" transform="translate(-1507 -568)"/>
</svg>
