<svg xmlns="http://www.w3.org/2000/svg" width="20" height="17" viewBox="0 0 20 17">
  <metadata><?xpacket begin="﻿" id="W5M0MpCehiHzreSzNTczkc9d"?>
<x:xmpmeta xmlns:x="adobe:ns:meta/" x:xmptk="Adobe XMP Core 5.6-c142 79.160924, 2017/07/13-01:06:39        ">
   <rdf:RDF xmlns:rdf="http://www.w3.org/1999/02/22-rdf-syntax-ns#">
      <rdf:Description rdf:about=""/>
   </rdf:RDF>
</x:xmpmeta>
                                                                                                    
                                                                                                    
                                                                                                    
                                                                                                    
                                                                                                    
                                                                                                    
                                                                                                    
                                                                                                    
                                                                                                    
                                                                                                    
                                                                                                    
                                                                                                    
                                                                                                    
                                                                                                    
                                                                                                    
                                                                                                    
                                                                                                    
                                                                                                    
                                                                                                    
                                                                                                    
                           
<?xpacket end="w"?></metadata>
<defs>
    <style>
      .cls-1 {
        fill: #c9cfdd;
        fill-rule: evenodd;
      }
    </style>
  </defs>
  <path id="Прямоугольник_30_копия_3" data-name="Прямоугольник 30 копия 3" class="cls-1" d="M1546,568h2a1,1,0,0,1,1,1v1a1,1,0,0,1-1,1h-2a1,1,0,0,1-1-1v-1A1,1,0,0,1,1546,568Zm7,0h11a1,1,0,0,1,1,1v1a1,1,0,0,1-1,1h-11a1,1,0,0,1-1-1v-1A1,1,0,0,1,1553,568Zm-7,7h2a1,1,0,0,1,1,1v1a1,1,0,0,1-1,1h-2a1,1,0,0,1-1-1v-1A1,1,0,0,1,1546,575Zm7,0h11a1,1,0,0,1,1,1v1a1,1,0,0,1-1,1h-11a1,1,0,0,1-1-1v-1A1,1,0,0,1,1553,575Zm-7,7h2a1,1,0,0,1,1,1v1a1,1,0,0,1-1,1h-2a1,1,0,0,1-1-1v-1A1,1,0,0,1,1546,582Zm7,0h11a1,1,0,0,1,1,1v1a1,1,0,0,1-1,1h-11a1,1,0,0,1-1-1v-1A1,1,0,0,1,1553,582Z" transform="translate(-1545 -568)"/>
</svg>
