<?xml version="1.0" encoding="utf-8"?>
<!-- Generator: Adobe Illustrator 23.0.5, SVG Export Plug-In . SVG Version: 6.00 Build 0)  -->
<svg version="1.1" id="Слой_1" xmlns="http://www.w3.org/2000/svg" xmlns:xlink="http://www.w3.org/1999/xlink" x="0px" y="0px"
	 viewBox="0 0 14 16" enable-background="new 0 0 14 16" xml:space="preserve">
<path id="Прямоугольник_10_копия_5" fill-rule="evenodd" clip-rule="evenodd" fill="#B2B8C6" d="M7,0
	c0.6,0,1,0.4,1,1v14c0,0.6-0.4,1-1,1s-1-0.4-1-1V1C6,0.4,6.4,0,7,0z M1,3c0.6,0,1,0.4,1,1v11c0,0.6-0.4,1-1,1s-1-0.4-1-1V4
	C0,3.4,0.4,3,1,3z M13,6c0.6,0,1,0.4,1,1v8c0,0.6-0.4,1-1,1s-1-0.4-1-1V7C12,6.4,12.4,6,13,6z"/>
</svg>
