<?xml version="1.0" encoding="utf-8"?>
<!-- Generator: Adobe Illustrator 23.0.5, SVG Export Plug-In . SVG Version: 6.00 Build 0)  -->
<svg version="1.1" id="Группа_5" xmlns="http://www.w3.org/2000/svg" xmlns:xlink="http://www.w3.org/1999/xlink" x="0px"
	 y="0px" viewBox="0 0 40 40" enable-background="new 0 0 40 40" xml:space="preserve">
<path id="Прямоугольник_13_копия" opacity="0.3" fill="#FFFFFF" enable-background="new    " d="M20,0L20,0
	c11,0,20,9,20,20l0,0c0,11-9,20-20,20l0,0C9,40,0,31,0,20l0,0C0,9,9,0,20,0z"/>
<path fill="#FFFFFF" d="M28,12H12c-1.7,0-3,1.3-3,3v10c0,1.7,1.3,3,3,3h16c1.7,0,3-1.3,3-3V15C31,13.4,29.7,12,28,12z M20,20.7
	L12.1,14h15.7L20,20.7z M28,26H12c-0.6,0-1-0.5-1-1v-9.2l9.1,7.8l9.1-7.8V25C29.1,25.6,28.6,26,28,26z"/>
</svg>
